0
SECTION
2
ENTITIES
0
LINE
8
CENTER
10
0
20
-70
30
0.0
11
0
21
125
31
0.0
0
LINE
8
CENTER
10
-70
20
0
30
0.0
11
80
21
0
31
0.0
0
LINE
8
CENTER
10
-40
20
-40
30
0.0
11
50
21
50
31
0.0
0
LINE
8
OBJECT
10
-8
20
110
30
0.0
11
8
21
110
31
0.0
0
LINE
8
OBJECT
10
-8
20
110
30
0.0
11
-10
21
108
31
0.0
0
LINE
8
OBJECT
10
8
20
110
30
0.0
11
10
21
108
31
0.0
0
LINE
8
OBJECT
10
-10
20
108
30
0.0
11
-10
21
83
31
0.0
0
LINE
8
OBJECT
10
10
20
108
30
0.0
11
10
21
83
31
0.0
0
LINE
8
OBJECT
10
-10
20
83
30
0.0
11
-8.5
21
83
31
0.0
0
LINE
8
OBJECT
10
10
20
83
30
0.0
11
8.5
21
83
31
0.0
0
LINE
8
OBJECT
10
-8.5
20
83
30
0.0
11
-8.5
21
80
31
0.0
0
LINE
8
OBJECT
10
8.5
20
83
30
0.0
11
8.5
21
80
31
0.0
0
LINE
8
OBJECT
10
-8.5
20
80
30
0.0
11
-10
21
80
31
0.0
0
LINE
8
OBJECT
10
8.5
20
80
30
0.0
11
10
21
80
31
0.0
0
LINE
8
OBJECT
10
-10
20
80
30
0.0
11
-10
21
62
31
0.0
0
LINE
8
OBJECT
10
10
20
80
30
0.0
11
10
21
62
31
0.0
0
ARC
8
OBJECT
10
-12
20
62
30
0.0
40
2
50
270
51
360
0
ARC
8
OBJECT
10
12
20
62
30
0.0
40
2
50
180
51
270
0
LINE
8
OBJECT
10
-12.5
20
60
30
0.0
11
-12.5
21
52
31
0.0
0
LINE
8
OBJECT
10
12.5
20
60
30
0.0
11
12.5
21
52
31
0.0
0
LINE
8
OBJECT
10
-12.5
20
52
30
0.0
11
12.5
21
52
31
0.0
0
CIRCLE
8
OBJECT
10
0
20
0
30
0.0
40
20
0
ARC
8
OBJECT
10
0
20
0
30
0.0
40
50
50
225
51
360
0
ENDSEC
0
EOF